<?xml version="1.0" encoding="UTF-8"?>
<svg width="76px" height="77px" viewBox="0 0 76 77" version="1.1" xmlns="http://www.w3.org/2000/svg" xmlns:xlink="http://www.w3.org/1999/xlink">
    <!-- Generator: Sketch 49.3 (51167) - http://www.bohemiancoding.com/sketch -->
    <title>cryptobridge</title>
    <desc>Created with Sketch.</desc>
    <defs>
        <linearGradient x1="34.8931818%" y1="45.2776316%" x2="67.8477273%" y2="56.3302632%" id="linearGradient-1">
            <stop stop-color="#19468E" offset="0%"></stop>
            <stop stop-color="#008EFF" offset="100%"></stop>
        </linearGradient>
        <linearGradient x1="13.8318182%" y1="37.8342105%" x2="68.3772727%" y2="55.9921053%" id="linearGradient-2">
            <stop stop-color="#19468E" offset="0%"></stop>
            <stop stop-color="#008EFF" offset="100%"></stop>
        </linearGradient>
        <linearGradient x1="26.5659091%" y1="42.2727273%" x2="73.6113636%" y2="57.8571429%" id="linearGradient-3">
            <stop stop-color="#347C8B" offset="0%"></stop>
            <stop stop-color="#00FFF4" offset="100%"></stop>
        </linearGradient>
        <linearGradient x1="26.3090909%" y1="42.6896104%" x2="73.3545455%" y2="58.1441558%" id="linearGradient-4">
            <stop stop-color="#347C8B" offset="0%"></stop>
            <stop stop-color="#00FFF4" offset="100%"></stop>
        </linearGradient>
    </defs>
    <g id="Page-1" stroke="none" stroke-width="1" fill="none" fill-rule="evenodd">
        <g id="cryptobridge" transform="translate(-1.000000, 0.000000)">
            <path d="M38.2,72.4 L38,72.4 L38.2,72.4 Z" id="Shape" fill="#FFFFFF" fill-rule="nonzero"></path>
            <path d="M40.3,72.2 C40.1,72.3 39.8,72.3 39.6,72.4 C39.9,72.3 40.1,72.3 40.3,72.2 Z" id="Shape" fill="#FFFFFF" fill-rule="nonzero"></path>
            <path d="M38,72.4 C37.7,72.4 37.5,72.3 37.2,72.2 C37.5,72.3 37.7,72.4 38,72.4 Z" id="Shape" fill="#FFFFFF" fill-rule="nonzero"></path>
            <path d="M40.4,72.2 L40.3,72.2 L40.4,72.2 Z" id="Shape" fill="#FFFFFF" fill-rule="nonzero"></path>
            <path d="M38.8,72.5 C38.6,72.5 38.4,72.5 38.2,72.5 C38.4,72.5 38.6,72.5 38.8,72.5 Z" id="Shape" fill="#FFFFFF" fill-rule="nonzero"></path>
            <path d="M39.6,72.4 L39.3,72.5 L39.6,72.4 Z" id="Shape" fill="#FFFFFF" fill-rule="nonzero"></path>
            <polygon id="Shape" points="34.8 38.2 38.8 45.1 42.8 38.2 38.8 31.3"></polygon>
            <path d="M15.9,16 C15.2,14.8 14.1,14 12.8,13.6 C12.4,13.5 11.9,13.4 11.4,13.4 C8.6,13.4 6.3,15.7 6.3,18.6 C6.3,19.5 6.5,20.4 7,21.2 L13.7,32.9 L19.7,22.6 L15.9,16 Z" id="Shape"></path>
            <path d="M61.7,60.4 C63.1,62.9 66.3,63.7 68.7,62.3 C69.9,61.6 70.8,60.5 71.1,59.1 C71.5,57.8 71.3,56.4 70.6,55.2 L63.8,43.5 L58,53.8 L61.7,60.4 Z" id="Shape"></path>
            <path d="M39.3,71.1 C39.1,71.1 39,71.1 38.8,71.1 L39.3,71.1 Z" id="Shape" fill="#FFFFFF" fill-rule="nonzero"></path>
            <path d="M38.3,71.1 L38,71.1 L38.3,71.1 Z" id="Shape" fill="#FFFFFF" fill-rule="nonzero"></path>
            <path d="M40.4,70.9 C40.2,71 39.9,71 39.7,71.1 C39.9,71.1 40.1,71 40.4,70.9 Z" id="Shape" fill="#FFFFFF" fill-rule="nonzero"></path>
            <path d="M38,71.1 C37.7,71.1 37.5,71 37.2,70.9 C37.5,71 37.7,71.1 38,71.1 Z" id="Shape" fill="#FFFFFF" fill-rule="nonzero"></path>
            <path d="M40.5,70.9 L40.4,70.9 L40.5,70.9 Z" id="Shape" fill="#FFFFFF" fill-rule="nonzero"></path>
            <path d="M38.8,71.2 C38.6,71.2 38.4,71.2 38.2,71.2 C38.5,71.2 38.6,71.2 38.8,71.2 Z" id="Shape" fill="#FFFFFF" fill-rule="nonzero"></path>
            <path d="M39.7,71.1 L39.4,71.2 L39.7,71.1 Z" id="Shape" fill="#FFFFFF" fill-rule="nonzero"></path>
            <path d="M63.9,43.5 L70.7,55.2 C71.4,56.4 71.6,57.8 71.2,59.1 C70.5,61.8 67.7,63.5 64.9,62.8 C63.6,62.4 62.4,61.6 61.7,60.4 L58,53.8 L55.8,57.6 L55,59.1 L57.2,63 C60.1,68 66.5,69.7 71.5,66.8 C71.5,66.8 71.5,66.8 71.5,66.8 C76.5,63.9 78.2,57.5 75.3,52.5 L67,38.2 L65,41.6 L63.9,43.5 Z" id="Shape" fill="#00FFF4" fill-rule="nonzero"></path>
            <path d="M47.9,5.2 C47.2,4 46.3,3 45.2,2.2 C45,2 44.8,1.9 44.5,1.7 C44.3,1.6 44.2,1.5 44,1.4 L44,1.3 C43.6,1.1 43.1,0.8 42.7,0.7 C42.2,0.5 41.7,0.3 41.2,0.2 L41,0.2 C40.8,0.2 40.5,0.1 40.3,0.1 L40,0.1 C39.8,0.1 39.6,0.1 39.4,0.1 L38.4,0.1 L37.9,0.1 L37.5,0.1 C37.3,0.1 37,0.2 36.8,0.2 L36.5,0.3 C36.2,0.4 35.9,0.5 35.7,0.5 C33.2,1.3 31.2,3 29.9,5.2 L23.7,16 L22.9,17.4 L20.6,21.3 L19.8,22.7 L14.6,31.7 L13.8,33 L11.5,36.9 L10.7,38.3 L2.4,52.6 C-0.5,57.6 1.2,64 6.2,66.9 C7.8,67.8 9.5,68.3 11.4,68.3 C12.3,68.3 13.2,68.2 14.1,67.9 C16.8,67.2 19.1,65.4 20.5,63 L22.7,59.1 L25.8,53.8 L31.8,43.5 L34.9,38.2 L38.9,31.3 L42.9,38.2 L45.9,32.9 L41.9,26 L38.8,20.7 L35.7,25.9 L31.7,32.8 L28.6,38.1 L22.7,48.4 L19.6,53.7 L15.8,60.2 C14.2,62.6 11,63.3 8.7,61.7 C6.5,60.3 5.7,57.4 6.9,55 L13.7,43.3 L16.8,38 L22.7,27.7 L25.8,22.4 L29.8,15.5 L34.3,7.7 C35.2,6.1 36.9,5.1 38.8,5.1 C40.6,5.1 42.4,6.1 43.3,7.7 L47.8,15.5 L51.8,22.4 L54.9,17.1 L47.9,5.2 Z" id="Shape" fill="#00FFF4" fill-rule="nonzero"></path>
            <path d="M13.7,32.9 L7,21.2 C5.6,18.7 6.4,15.6 8.9,14.2 C9.7,13.7 10.6,13.5 11.5,13.5 C12,13.5 12.4,13.6 12.9,13.7 C14.2,14 15.3,14.9 16,16.1 L19.8,22.6 L22.9,17.3 L20.7,13.4 C19.3,11 17,9.2 14.3,8.5 C11.6,7.8 8.8,8.1 6.4,9.5 C1.4,12.4 -0.3,18.8 2.6,23.8 C2.6,23.8 2.6,23.8 2.6,23.8 L10.9,38.2 L13.7,32.9 Z" id="Shape" fill="#008EFF" fill-rule="nonzero"></path>
            <path d="M71.4,9.6 C66.4,6.7 60,8.4 57.1,13.4 L55.2,16.7 L54.8,17.3 L52.1,22 L51.7,22.6 L46.1,32.3 L45.7,32.9 L43,37.6 L42.6,38.2 L38.6,45.1 L34.6,38.2 L32.2,42.3 L31.5,43.5 L35.5,50.4 L38.6,55.7 L41.7,50.4 L45.7,43.5 L48.8,38.2 L54.8,27.9 L57.9,22.6 L61.7,16.1 C63.1,13.6 66.3,12.8 68.7,14.2 C71.1,15.6 72,18.8 70.6,21.2 L63.8,33 L60.7,38.3 L54.7,48.6 L51.6,53.9 L47.6,60.8 L43.1,68.6 C42.5,69.7 41.5,70.5 40.3,70.9 L40.2,70.9 C40,71 39.7,71 39.5,71.1 L39.2,71.2 L38.7,71.2 C38.5,71.2 38.3,71.2 38.1,71.2 L37.8,71.2 C37.5,71.2 37.3,71.1 37,71 L36.9,71 C35.7,70.6 34.7,69.8 34.1,68.7 L29.6,60.9 L25.6,54 L23.3,58 L22.6,59.2 L29.6,71.3 C31.5,74.5 34.9,76.5 38.7,76.5 C42.4,76.5 45.9,74.5 47.8,71.3 L54.8,59.2 L57.9,53.9 L63.9,43.6 L66.9,38.3 L75.1,23.9 C78.1,18.8 76.4,12.5 71.4,9.6 Z" id="Shape" fill="#008EFF" fill-rule="nonzero"></path>
            <polygon id="Shape" fill="url(#linearGradient-1)" fill-rule="nonzero" points="27.1 56.1 25.8 53.8 22.7 59.1 24.1 61.4 24.4 60.8"></polygon>
            <polygon id="Shape" fill="url(#linearGradient-2)" fill-rule="nonzero" points="31.7 43.5 33.1 45.8 33.4 45.2 36.1 40.5 34.8 38.2"></polygon>
            <polygon id="Shape" fill="url(#linearGradient-3)" fill-rule="nonzero" points="63.9 43.5 65.3 45.9 66 44.5 68.3 40.6 66.9 38.2"></polygon>
            <polygon id="Shape" fill="url(#linearGradient-4)" fill-rule="nonzero" points="59.3 56.2 57.9 53.8 54.9 59.1 56.2 61.5 57 60.2"></polygon>
        </g>
    </g>
</svg>